<svg width="1159" height="579" viewBox="0 0 1159 579" fill="none" xmlns="http://www.w3.org/2000/svg">
<path d="M1154.48 434.901C1145.8 469.204 1121.49 497.864 1084.88 520.308C1048.28 542.754 999.406 558.962 941.665 568.358C826.186 587.148 675.337 578.67 516.501 538.448C357.665 498.225 220.962 433.885 128.344 362.397C82.034 326.653 46.7654 289.137 25.255 251.974C3.74609 214.815 -3.99131 178.039 4.69528 143.736C13.3819 109.434 37.6899 80.7732 74.2924 58.3292C110.898 35.8836 159.771 19.675 217.512 10.2797C332.991 -8.51072 483.84 -0.0329154 642.676 40.1897C801.512 80.4123 938.215 144.752 1030.83 216.24C1077.14 251.984 1112.41 289.501 1133.92 326.663C1155.43 363.823 1163.17 400.598 1154.48 434.901Z" stroke="url(#paint0_linear_115_8)"/>
<defs>
<linearGradient id="paint0_linear_115_8" x1="44.5123" y1="123.871" x2="1040.57" y2="537.1" gradientUnits="userSpaceOnUse">
<stop stop-color="#484848"/>
<stop offset="0.491388" stop-color="#484848" stop-opacity="0.36"/>
<stop offset="1" stop-color="#484848"/>
</linearGradient>
</defs>
</svg>
