<svg width="674" height="1017" viewBox="0 0 674 1017" fill="none" xmlns="http://www.w3.org/2000/svg">
<g opacity="0.7">
<path opacity="0.0344828" d="M-191.617 779.614C-186.85 785.295 -179.662 788.819 -170.208 790.237C-160.745 791.656 -149.075 790.954 -135.463 788.234C-108.24 782.793 -73.4597 769.321 -33.4711 748.978C46.4914 708.298 147.078 640.248 249.316 554.46C351.554 468.672 436.037 381.431 489.984 309.747C516.962 273.898 536.269 241.985 546.354 216.121C551.397 203.189 554.115 191.818 554.36 182.252C554.606 172.695 552.384 165.005 547.617 159.323C542.85 153.642 535.662 150.119 526.207 148.701C516.745 147.281 505.074 147.983 491.463 150.704C464.24 156.145 429.459 169.617 389.471 189.96C309.508 230.639 208.922 298.69 106.684 384.478C4.44572 470.265 -80.0376 557.507 -133.984 629.191C-160.962 665.039 -180.269 696.952 -190.354 722.816C-195.397 735.749 -198.115 747.12 -198.361 756.685C-198.606 766.242 -196.384 773.933 -191.617 779.614Z" stroke="#2B2C3B" stroke-width="2"/>
<path opacity="0.0689655" d="M-163.18 814.507C-157.936 819.751 -150.468 822.635 -140.926 823.223C-131.376 823.813 -119.811 822.096 -106.488 818.2C-79.8435 810.407 -46.3695 793.955 -8.30614 770.204C67.8067 722.71 162.08 646.152 256.452 551.78C350.824 457.408 427.382 363.135 474.875 287.022C498.626 248.959 515.078 215.485 522.871 188.84C526.768 175.517 528.484 163.952 527.895 154.402C527.307 144.86 524.423 137.392 519.179 132.148C513.935 126.904 506.467 124.02 496.925 123.432C487.375 122.843 475.81 124.559 462.487 128.456C435.842 136.249 402.368 152.701 364.305 176.452C288.192 223.945 193.919 300.503 99.5472 394.875C5.17508 489.247 -71.3832 583.52 -118.877 659.633C-142.628 697.697 -159.08 731.171 -166.873 757.815C-170.769 771.138 -172.486 782.703 -171.896 792.253C-171.308 801.795 -168.424 809.263 -163.18 814.507Z" stroke="#2B2C3B" stroke-width="2"/>
<path opacity="0.103448" d="M-132.145 846.805C-126.464 851.572 -118.773 853.794 -109.216 853.549C-99.6508 853.303 -88.2798 850.585 -75.3472 845.542C-49.483 835.457 -17.5703 816.15 18.2782 789.172C89.9621 735.226 177.204 650.742 262.992 548.504C348.78 446.266 416.83 345.68 457.509 265.717C477.852 225.728 491.324 190.948 496.765 163.725C499.486 150.114 500.188 138.443 498.769 128.981C497.35 119.526 493.827 112.338 488.146 107.571C482.465 102.804 474.774 100.582 465.217 100.827C455.652 101.073 444.281 103.791 431.348 108.834C405.484 118.919 373.571 138.226 337.722 165.204C266.039 219.151 178.797 303.634 93.0091 405.872C7.22119 508.11 -60.8293 608.697 -101.508 688.659C-121.852 728.648 -135.323 763.428 -140.765 790.651C-143.485 804.263 -144.187 815.933 -142.768 825.396C-141.35 834.85 -137.826 842.038 -132.145 846.805Z" stroke="#2B2C3B" stroke-width="2"/>
<path opacity="0.137931" d="M-98.7517 876.29C-92.6768 880.544 -84.8217 882.087 -75.3225 881.01C-65.8148 879.931 -54.7239 876.233 -42.2801 870.082C-17.3933 857.781 12.7153 835.766 46.076 805.766C112.785 745.777 192.332 654.012 268.883 544.686C345.433 435.36 404.458 329.225 438.013 246.022C454.794 204.412 465.183 168.59 468.231 140.997C469.755 127.199 469.437 115.512 467.198 106.209C464.962 96.9146 460.825 90.0611 454.75 85.8074C448.675 81.5536 440.82 80.0104 431.321 81.0877C421.813 82.1658 410.722 85.8643 398.279 92.0153C373.392 104.317 343.283 126.331 309.922 156.331C243.213 216.32 163.667 308.085 87.1157 417.411C10.5649 526.737 -48.4599 632.872 -82.015 716.076C-98.7955 757.685 -109.185 793.507 -112.233 821.101C-113.757 834.898 -113.439 846.585 -111.2 855.888C-108.963 865.183 -104.827 872.036 -98.7517 876.29Z" stroke="#2B2C3B" stroke-width="2"/>
<path opacity="0.172414" d="M-63.2499 902.766C-56.8273 906.474 -48.8677 907.327 -39.4984 905.426C-30.121 903.523 -19.3946 898.872 -7.53421 891.66C16.1857 877.236 44.261 852.681 74.8802 819.888C136.107 754.313 207.353 655.964 274.084 540.383C340.815 424.801 390.365 313.925 416.541 228.114C429.631 185.2 436.859 148.609 437.49 120.855C437.806 106.978 436.471 95.3627 433.43 86.2902C430.392 77.2257 425.673 70.7588 419.251 67.0507C412.828 63.3426 404.868 62.4899 395.499 64.391C386.122 66.2937 375.395 70.9447 363.535 78.1569C339.815 92.5805 311.74 117.136 281.121 149.929C219.893 215.503 148.647 313.853 81.9164 429.434C15.1852 545.016 -34.3647 655.891 -60.5404 741.703C-73.6306 784.617 -80.8583 821.208 -81.4895 848.962C-81.8052 862.839 -80.47 874.454 -77.4291 883.527C-74.3908 892.591 -69.6725 899.058 -63.2499 902.766Z" stroke="#2B2C3B" stroke-width="2"/>
<path opacity="0.206897" d="M-25.9132 926.063C-19.1919 929.197 -11.1882 929.353 -2.02028 926.643C7.15566 923.93 17.4358 918.362 28.6225 910.143C50.9951 893.707 76.8235 866.799 104.468 831.461C159.747 760.8 222.15 656.616 278.554 535.658C334.957 414.7 374.655 299.928 393.252 212.161C402.553 168.27 406.563 131.188 404.773 103.485C403.878 89.6327 401.536 78.1784 397.716 69.4055C393.899 60.6403 388.635 54.6092 381.914 51.475C375.193 48.3408 367.189 48.185 358.021 50.8954C348.845 53.6082 338.565 59.1765 327.378 67.3948C305.006 83.8309 279.177 110.739 251.533 146.077C196.254 216.738 133.851 320.922 77.4471 441.88C21.0435 562.838 -18.6545 677.61 -37.2516 765.376C-46.5518 809.268 -50.5628 846.35 -48.7728 874.053C-47.8777 887.905 -45.5353 899.36 -41.7152 908.132C-37.8985 916.898 -32.6345 922.929 -25.9132 926.063Z" stroke="#2B2C3B" stroke-width="2"/>
<path opacity="0.241379" d="M12.975 946.033C19.9439 948.569 27.9307 948.027 36.8274 944.528C45.732 941.025 55.4878 934.582 65.9157 925.42C86.7706 907.097 110.155 878.04 134.615 840.428C183.525 765.217 236.61 655.99 282.257 530.577C327.904 405.163 357.448 287.368 368.325 198.315C373.764 153.78 374.528 116.49 370.33 89.0478C368.231 75.3264 364.9 64.1199 360.329 55.7133C355.763 47.314 349.994 41.7647 343.025 39.2282C336.056 36.6918 328.069 37.2342 319.172 40.7333C310.268 44.2355 300.512 50.6785 290.084 59.8406C269.229 78.164 245.844 107.221 221.385 144.833C172.475 220.044 119.389 329.27 73.7426 454.684C28.0959 580.097 -1.44805 697.893 -12.325 786.946C-17.7645 831.481 -18.5283 868.771 -14.3306 896.213C-12.2317 909.934 -8.8998 921.141 -4.32967 929.548C0.236451 937.947 6.00606 943.496 12.975 946.033Z" stroke="#2B2C3B" stroke-width="2"/>
<path opacity="0.275862" d="M53.1201 962.548C60.2835 964.467 68.1927 963.231 76.7506 958.97C85.3161 954.705 94.4732 947.436 104.063 937.4C123.241 917.329 144.005 886.344 165.093 846.743C207.262 767.556 250.626 654.118 285.168 525.204C319.711 396.289 338.876 276.367 341.95 186.705C343.487 141.866 340.998 104.65 334.424 77.6787C331.138 64.1924 326.842 53.3189 321.556 45.3426C316.275 37.3733 310.044 32.348 302.881 30.4285C295.717 28.5091 287.808 29.7455 279.25 34.0067C270.685 38.2717 261.528 45.5405 251.938 55.5765C232.759 75.6479 211.996 106.633 190.908 146.233C148.739 225.42 105.375 338.858 70.8326 467.773C36.2901 596.687 17.1251 716.609 14.051 806.272C12.5137 851.111 15.0029 888.326 21.5764 915.298C24.8632 928.784 29.1591 939.658 34.4445 947.634C39.7253 955.603 45.9566 960.629 53.1201 962.548Z" stroke="#2B2C3B" stroke-width="2"/>
<path opacity="0.310345" d="M94.2141 975.519C101.518 976.807 109.289 974.886 117.443 969.895C125.604 964.899 134.093 956.86 142.771 946.027C160.127 924.36 178.111 891.684 195.668 850.396C230.775 767.835 264.087 651.049 287.262 519.615C310.438 388.18 319.078 267.044 314.326 177.455C311.949 132.652 306.226 95.7955 297.327 69.4995C292.877 56.351 287.65 45.8933 281.689 38.408C275.734 30.9293 269.088 26.4661 261.785 25.1783C254.481 23.8905 246.71 25.8116 238.556 30.8024C230.395 35.7977 221.906 43.8369 213.228 54.6706C195.871 76.3371 177.888 109.014 160.331 150.302C125.224 232.862 91.9122 349.648 68.7368 481.083C45.5613 612.517 36.9211 733.653 41.6733 823.242C44.0498 868.045 49.7731 904.902 58.6723 931.198C63.122 944.346 68.3493 954.804 74.3098 962.289C80.265 969.768 86.9106 974.231 94.2141 975.519Z" stroke="#2B2C3B" stroke-width="2"/>
<path opacity="0.344828" d="M135.947 984.873C143.335 985.519 150.909 982.928 158.597 977.246C166.292 971.558 174.048 962.81 181.749 951.261C197.151 928.164 212.218 894.045 226.109 851.384C253.887 766.077 276.894 646.833 288.526 513.878C300.158 380.924 298.207 259.496 285.665 170.662C279.393 126.237 270.479 90.0193 259.322 64.599C253.743 51.8883 247.624 41.926 241.034 34.9887C234.449 28.0575 227.44 24.1905 220.052 23.5441C212.664 22.8978 205.09 25.4888 197.402 31.1714C189.707 36.8589 181.952 45.6074 174.25 57.1562C158.849 80.2529 143.781 114.372 129.89 157.034C102.112 242.34 79.1055 361.584 67.4735 494.539C55.8415 627.493 57.7919 748.921 70.3343 837.755C76.6066 882.18 85.5203 918.398 96.6775 943.818C102.256 956.529 108.375 966.491 114.965 973.429C121.55 980.36 128.559 984.227 135.947 984.873Z" stroke="#2B2C3B" stroke-width="2"/>
<path opacity="0.37931" d="M178.001 990.571C185.417 990.571 192.737 987.33 199.9 980.999C207.07 974.662 214.034 965.271 220.699 953.095C234.029 928.744 246.066 893.441 256.186 849.731C276.423 762.328 288.949 641.533 288.949 508.07C288.949 374.608 276.423 253.812 256.186 166.409C246.066 122.7 234.029 87.3971 220.699 63.0459C214.034 50.8698 207.07 41.4787 199.9 35.1421C192.737 28.8112 185.417 25.5698 178.001 25.5698C170.585 25.5698 163.265 28.8112 156.102 35.1421C148.932 41.4787 141.968 50.8698 135.303 63.0459C121.973 87.3971 109.936 122.7 99.8158 166.409C79.5789 253.812 67.0527 374.608 67.0527 508.07C67.0527 641.533 79.5789 762.328 99.8158 849.731C109.936 893.441 121.973 928.744 135.303 953.095C141.968 965.271 148.932 974.662 156.102 980.999C163.265 987.33 170.585 990.571 178.001 990.571Z" stroke="#2B2C3B" stroke-width="2"/>
<path opacity="0.413793" d="M220.053 992.596C227.441 991.95 234.45 988.083 241.034 981.151C247.624 974.214 253.743 964.252 259.322 951.541C270.479 926.121 279.393 889.903 285.665 845.478C298.208 756.644 300.158 635.216 288.526 502.262C276.894 369.307 253.887 250.063 226.11 164.756C212.219 122.095 197.151 87.9759 181.749 64.8791C174.048 53.3303 166.292 44.5819 158.597 38.8943C150.909 33.2118 143.335 30.6207 135.947 31.2671C128.559 31.9135 121.55 35.7804 114.966 42.7116C108.375 49.6489 102.257 59.6113 96.6779 72.3219C85.5207 97.7423 76.607 133.96 70.3347 178.385C57.7923 267.219 55.8419 388.647 67.4739 521.601C79.1059 654.556 102.112 773.8 129.89 859.107C143.781 901.768 158.849 935.887 174.251 958.984C181.952 970.533 189.708 979.281 197.402 984.969C205.09 990.651 212.665 993.242 220.053 992.596Z" stroke="#2B2C3B" stroke-width="2"/>
<path opacity="0.448276" d="M261.787 990.962C269.09 989.675 275.736 985.211 281.691 977.733C287.652 970.247 292.879 959.79 297.329 946.641C306.228 920.345 311.951 883.489 314.328 838.686C319.08 749.097 310.44 627.961 287.264 496.526C264.089 365.092 230.777 248.306 195.67 165.745C178.113 124.457 160.129 91.7806 142.773 70.1141C134.095 59.2804 125.606 51.2412 117.445 46.246C109.291 41.2551 101.52 39.3341 94.2161 40.6219C86.9126 41.9097 80.267 46.3728 74.3117 53.8515C68.3512 61.3368 63.124 71.7945 58.6743 84.943C49.7751 111.239 44.0518 148.096 41.6753 192.898C36.9231 282.488 45.5632 403.623 68.7387 535.058C91.9142 666.493 125.226 783.278 160.333 865.839C177.89 907.127 195.873 939.804 213.23 961.47C221.908 972.304 230.397 980.343 238.558 985.338C246.712 990.329 254.483 992.25 261.787 990.962Z" stroke="#2B2C3B" stroke-width="2"/>
<path opacity="0.482759" d="M302.88 985.711C310.043 983.791 316.275 978.766 321.555 970.797C326.841 962.82 331.137 951.947 334.423 938.46C340.997 911.489 343.486 874.274 341.949 829.434C338.875 739.772 319.71 619.85 285.167 490.935C250.625 362.021 207.261 248.583 165.092 169.396C144.004 129.795 123.24 98.8106 104.062 78.7392C94.4722 68.7031 85.3151 61.4344 76.7496 57.1694C68.1917 52.9082 60.2825 51.6718 53.1191 53.5912C45.9556 55.5106 39.7243 60.536 34.4435 68.5053C29.1581 76.4816 24.8622 87.3551 21.5754 100.841C15.0019 127.813 12.5127 165.028 14.05 209.868C17.1241 299.53 36.2891 419.452 70.8316 548.366C105.374 677.281 148.738 790.719 190.907 869.906C211.995 909.507 232.758 940.491 251.937 960.563C261.527 970.599 270.684 977.867 279.249 982.132C287.807 986.394 295.716 987.63 302.88 985.711Z" stroke="#2B2C3B" stroke-width="2"/>
<path opacity="0.517241" d="M343.026 976.914C349.995 974.378 355.765 968.828 360.331 960.429C364.901 952.022 368.233 940.816 370.332 927.094C374.53 899.653 373.766 862.362 368.326 817.827C357.449 728.774 327.905 610.979 282.259 485.565C236.612 360.152 183.526 250.925 134.616 175.715C110.157 138.103 86.772 109.045 65.9171 90.722C55.4893 81.5599 45.7335 75.1169 36.8289 71.6147C27.9322 68.1156 19.9453 67.5732 12.9764 70.1096C6.00755 72.6461 0.237935 78.1954 -4.32819 86.5947C-8.89833 95.0013 -12.2302 106.208 -14.3291 119.929C-18.5268 147.371 -17.763 184.662 -12.3236 229.196C-1.44658 318.25 28.0973 436.045 73.7441 561.458C119.391 686.872 172.476 796.099 221.386 871.309C245.846 908.921 269.231 937.978 290.086 956.302C300.513 965.464 310.269 971.907 319.174 975.409C328.071 978.908 336.057 979.45 343.026 976.914Z" stroke="#2B2C3B" stroke-width="2"/>
<path opacity="0.551724" d="M381.914 964.665C388.636 961.531 393.9 955.5 397.716 946.735C401.536 937.962 403.879 926.508 404.774 912.655C406.564 884.952 402.553 847.87 393.253 803.979C374.656 716.212 334.958 601.44 278.554 480.483C222.15 359.525 159.747 255.34 104.468 184.679C76.8239 149.342 50.9955 122.433 28.623 105.997C17.4363 97.7788 7.15608 92.2106 -2.01986 89.4978C-11.1877 86.7874 -19.1914 86.9432 -25.9128 90.0774C-32.6341 93.2116 -37.8981 99.2426 -41.7148 108.008C-45.5348 116.781 -47.8773 128.235 -48.7723 142.087C-50.5623 169.791 -46.5514 206.873 -37.2512 250.764C-18.6541 338.53 21.044 453.302 77.4475 574.26C133.851 695.218 196.254 799.402 251.533 870.064C279.178 905.401 305.006 932.309 327.379 948.745C338.565 956.964 348.845 962.532 358.021 965.245C367.189 967.955 375.193 967.8 381.914 964.665Z" stroke="#2B2C3B" stroke-width="2"/>
<path opacity="0.586207" d="M419.251 949.09C425.674 945.382 430.392 938.915 433.43 929.85C436.471 920.778 437.807 909.163 437.491 895.285C436.86 867.532 429.632 830.94 416.542 788.027C390.366 702.215 340.816 591.34 274.085 475.758C207.354 360.176 136.108 261.827 74.8809 196.252C44.2617 163.459 16.1864 138.904 -7.53352 124.48C-19.3939 117.268 -30.1203 112.617 -39.4978 110.715C-48.867 108.814 -56.8266 109.666 -63.2492 113.374C-69.6718 117.082 -74.3901 123.549 -77.4284 132.614C-80.4693 141.686 -81.8045 153.301 -81.4889 167.179C-80.8576 194.932 -73.6299 231.524 -60.5397 274.438C-34.3641 360.249 15.1859 471.124 81.9171 586.706C148.648 702.288 219.894 800.637 281.121 866.212C311.74 899.005 339.816 923.56 363.536 937.984C375.396 945.196 386.122 949.847 395.5 951.749C404.869 953.651 412.829 952.798 419.251 949.09Z" stroke="#2B2C3B" stroke-width="2"/>
<path opacity="0.62069" d="M454.751 930.333C460.826 926.079 464.963 919.225 467.199 909.93C469.438 900.627 469.756 888.94 468.232 875.143C465.184 847.55 454.795 811.728 438.014 770.118C404.459 686.915 345.434 580.78 268.883 471.454C192.333 362.128 112.786 270.363 46.0767 210.374C12.7159 180.374 -17.3927 158.359 -42.2794 146.058C-54.7233 139.907 -65.8142 136.208 -75.3218 135.13C-84.8211 134.053 -92.6761 135.596 -98.7511 139.85C-104.826 144.104 -108.963 150.957 -111.199 160.252C-113.438 169.555 -113.756 181.242 -112.232 195.039C-109.184 222.632 -98.7949 258.455 -82.0143 300.064C-48.4593 383.268 10.5656 489.403 87.1164 598.729C163.667 708.054 243.214 799.82 309.923 859.809C343.284 889.808 373.392 911.823 398.279 924.125C410.723 930.276 421.814 933.974 431.322 935.052C440.821 936.129 448.676 934.586 454.751 930.333Z" stroke="#2B2C3B" stroke-width="2"/>
<path opacity="0.655172" d="M488.146 908.57C493.827 903.803 497.351 896.615 498.769 887.16C500.188 877.697 499.486 866.027 496.765 852.415C491.324 825.193 477.852 790.412 457.509 750.424C416.83 670.461 348.78 569.875 262.992 467.637C177.204 365.399 89.9623 280.915 18.2784 226.969C-17.5701 199.991 -49.4828 180.684 -75.347 170.598C-88.2796 165.555 -99.6507 162.838 -109.216 162.592C-118.773 162.347 -126.464 164.569 -132.145 169.336C-137.826 174.103 -141.35 181.291 -142.768 190.745C-144.187 200.208 -143.485 211.878 -140.764 225.49C-135.323 252.713 -121.851 287.493 -101.508 327.482C-60.8291 407.444 7.22139 508.031 93.0093 610.269C178.797 712.507 266.039 796.99 337.723 850.937C373.571 877.915 405.484 897.221 431.348 907.307C444.281 912.35 455.652 915.068 465.217 915.313C474.774 915.559 482.465 913.337 488.146 908.57Z" stroke="#2B2C3B" stroke-width="2"/>
<path opacity="0.689655" d="M519.178 883.992C524.422 878.748 527.306 871.28 527.895 861.738C528.484 852.188 526.768 840.623 522.871 827.3C515.078 800.656 498.626 767.182 474.875 729.118C427.382 653.005 350.823 558.732 256.451 464.36C162.079 369.988 67.8063 293.43 -8.30655 245.937C-46.3699 222.186 -79.8439 205.734 -106.489 197.941C-119.812 194.044 -131.376 192.328 -140.927 192.917C-150.469 193.505 -157.936 196.389 -163.18 201.633C-168.424 206.877 -171.308 214.345 -171.897 223.887C-172.486 233.437 -170.77 245.002 -166.873 258.325C-159.08 284.97 -142.628 318.444 -118.877 356.507C-71.3836 432.62 5.17468 526.893 99.5468 621.265C193.919 715.637 288.192 792.195 364.305 839.689C402.368 863.44 435.842 879.892 462.487 887.685C475.81 891.581 487.374 893.298 496.925 892.708C506.467 892.12 513.934 889.236 519.178 883.992Z" stroke="#2B2C3B" stroke-width="2"/>
<path opacity="0.724138" d="M547.617 856.818C552.384 851.137 554.606 843.446 554.361 833.889C554.115 824.324 551.397 812.953 546.354 800.02C536.269 774.156 516.962 742.243 489.984 706.395C436.038 634.711 351.554 547.469 249.316 461.681C147.078 375.894 46.4916 307.843 -33.4709 267.164C-73.4595 246.821 -108.24 233.349 -135.463 227.908C-149.074 225.187 -160.745 224.485 -170.207 225.905C-179.662 227.323 -186.85 230.846 -191.617 236.527C-196.384 242.208 -198.606 249.899 -198.36 259.456C-198.115 269.022 -195.397 280.393 -190.354 293.325C-180.269 319.189 -160.962 351.102 -133.984 386.951C-80.0374 458.634 4.44595 545.876 106.684 631.664C208.922 717.452 309.509 785.502 389.471 826.181C429.46 846.525 464.24 859.997 491.463 865.438C505.075 868.158 516.745 868.86 526.208 867.441C535.662 866.023 542.85 862.499 547.617 856.818Z" stroke="#2B2C3B" stroke-width="2"/>
<path opacity="0.758621" d="M573.241 827.284C577.495 821.209 579.038 813.354 577.961 803.855C576.883 794.348 573.184 783.257 567.033 770.813C554.732 745.926 532.717 715.817 502.717 682.457C442.728 615.747 350.963 536.201 241.637 459.65C132.311 383.099 26.1764 324.074 -57.0273 290.519C-98.6367 273.739 -134.459 263.35 -162.052 260.302C-175.849 258.778 -187.536 259.096 -196.839 261.334C-206.134 263.571 -212.988 267.708 -217.241 273.783C-221.495 279.858 -223.038 287.713 -221.961 297.212C-220.883 306.719 -217.184 317.81 -211.034 330.254C-198.732 355.141 -176.717 385.25 -146.718 418.61C-86.7288 485.32 5.03666 564.866 114.363 641.417C223.688 717.968 329.823 776.993 413.027 810.548C454.636 827.328 490.459 837.718 518.052 840.765C531.849 842.289 543.536 841.971 552.839 839.733C562.134 837.496 568.987 833.359 573.241 827.284Z" stroke="#2B2C3B" stroke-width="2"/>
<path opacity="0.793103" d="M595.858 795.644C599.566 789.221 600.419 781.262 598.518 771.892C596.615 762.515 591.964 751.788 584.752 739.928C570.328 716.208 545.773 688.133 512.98 657.514C447.406 596.287 349.056 525.041 233.475 458.31C117.893 391.578 7.01763 342.028 -78.7939 315.853C-121.708 302.763 -158.299 295.535 -186.053 294.904C-199.93 294.588 -211.545 295.923 -220.618 298.964C-229.682 302.002 -236.149 306.721 -239.857 313.143C-243.565 319.566 -244.418 327.525 -242.517 336.895C-240.614 346.272 -235.963 356.999 -228.751 368.859C-214.327 392.579 -189.772 420.654 -156.979 451.273C-91.4045 512.5 6.94476 583.746 122.526 650.477C238.108 717.209 348.983 766.759 434.795 792.934C477.709 806.025 514.3 813.252 542.054 813.883C555.931 814.199 567.546 812.864 576.619 809.823C585.683 806.785 592.15 802.066 595.858 795.644Z" stroke="#2B2C3B" stroke-width="2"/>
<path opacity="0.827586" d="M615.294 762.168C618.428 755.447 618.584 747.443 615.873 738.275C613.161 729.099 607.592 718.819 599.374 707.632C582.938 685.26 556.029 659.431 520.692 631.787C450.031 576.508 345.846 514.105 224.889 457.701C103.931 401.298 -10.8413 361.6 -98.6077 343.002C-142.499 333.702 -179.581 329.691 -207.284 331.481C-221.136 332.376 -232.591 334.719 -241.364 338.539C-250.129 342.356 -256.16 347.62 -259.294 354.341C-262.428 361.062 -262.584 369.066 -259.874 378.234C-257.161 387.41 -251.593 397.69 -243.374 408.877C-226.938 431.249 -200.03 457.078 -164.693 484.722C-94.0313 540.001 10.1532 602.404 131.111 658.808C252.069 715.211 366.841 754.909 454.607 773.506C498.499 782.807 535.581 786.818 563.284 785.028C577.136 784.132 588.59 781.79 597.363 777.97C606.129 774.153 612.16 768.889 615.294 762.168Z" stroke="#2B2C3B" stroke-width="2"/>
<path opacity="0.862069" d="M631.402 727.139C633.938 720.17 633.396 712.184 629.897 703.287C626.394 694.382 619.951 684.626 610.789 674.199C592.466 653.344 563.409 629.959 525.797 605.499C450.586 556.589 341.36 503.504 215.946 457.857C90.5326 412.21 -27.2626 382.666 -116.316 371.789C-160.851 366.35 -198.141 365.586 -225.583 369.784C-239.304 371.883 -250.511 375.215 -258.918 379.785C-267.317 384.351 -272.866 390.121 -275.403 397.089C-277.939 404.058 -277.397 412.045 -273.898 420.942C-270.395 429.847 -263.952 439.602 -254.79 450.03C-236.467 470.885 -207.41 494.27 -169.798 518.729C-94.5873 567.639 14.6395 620.725 140.053 666.372C265.467 712.018 383.262 741.562 472.315 752.439C516.85 757.879 554.14 758.642 581.582 754.445C595.304 752.346 606.51 749.014 614.917 744.444C623.316 739.878 628.865 734.108 631.402 727.139Z" stroke="#2B2C3B" stroke-width="2"/>
<path opacity="0.896552" d="M644.06 690.855C645.979 683.691 644.743 675.782 640.482 667.224C636.217 658.659 628.948 649.502 618.912 639.912C598.84 620.733 567.856 599.97 528.255 578.882C449.068 536.713 335.63 493.349 206.716 458.807C77.8009 424.264 -42.121 405.099 -131.783 402.025C-176.623 400.488 -213.838 402.977 -240.81 409.55C-254.296 412.837 -265.169 417.133 -273.146 422.419C-281.115 427.699 -286.14 433.931 -288.06 441.094C-289.979 448.258 -288.743 456.167 -284.482 464.725C-280.217 473.29 -272.948 482.447 -262.912 492.037C-242.84 511.215 -211.856 531.979 -172.255 553.067C-93.068 595.236 20.3698 638.6 149.284 673.142C278.199 707.685 398.121 726.85 487.783 729.924C532.623 731.461 569.838 728.972 596.81 722.399C610.296 719.112 621.169 714.816 629.146 709.53C637.115 704.25 642.14 698.018 644.06 690.855Z" stroke="#2B2C3B" stroke-width="2"/>
<path opacity="0.931035" d="M653.171 653.62C654.459 646.317 652.538 638.546 647.547 630.392C642.552 622.23 634.513 613.742 623.679 605.063C602.012 587.707 569.336 569.723 528.048 552.167C445.487 517.06 328.702 483.748 197.267 460.572C65.8322 437.397 -55.3036 428.757 -144.893 433.509C-189.695 435.885 -226.552 441.609 -252.848 450.508C-265.997 454.958 -276.454 460.185 -283.94 466.145C-291.418 472.101 -295.882 478.746 -297.169 486.05C-298.457 493.353 -296.536 501.124 -291.545 509.278C-286.55 517.44 -278.511 525.928 -267.677 534.607C-246.011 551.963 -213.334 569.947 -172.046 587.504C-89.4853 622.61 27.3003 655.922 158.735 679.098C290.17 702.273 411.305 710.913 500.895 706.161C545.697 703.785 582.554 698.061 608.85 689.162C621.999 684.712 632.456 679.485 639.942 673.525C647.42 667.569 651.883 660.924 653.171 653.62Z" stroke="#2B2C3B" stroke-width="2"/>
<path opacity="0.965517" d="M658.664 615.747C659.31 608.359 656.719 600.785 651.037 593.097C645.349 585.402 636.601 577.646 625.052 569.945C601.955 554.543 567.836 539.476 525.175 525.584C439.868 497.807 320.624 474.8 187.669 463.168C54.715 451.536 -66.7129 453.487 -155.547 466.029C-199.972 472.301 -236.19 481.215 -261.61 492.372C-274.321 497.951 -284.283 504.07 -291.22 510.66C-298.152 517.244 -302.018 524.254 -302.665 531.642C-303.311 539.03 -300.72 546.604 -295.038 554.292C-289.35 561.987 -280.602 569.742 -269.053 577.443C-245.956 592.845 -211.836 607.913 -169.175 621.804C-83.869 649.582 35.3755 672.588 168.33 684.22C301.284 695.852 422.712 693.902 511.546 681.36C555.971 675.087 592.189 666.174 617.609 655.016C630.32 649.438 640.282 643.319 647.22 636.729C654.151 630.144 658.018 623.135 658.664 615.747Z" stroke="#2B2C3B" stroke-width="2"/>
<path d="M660.501 577.555C660.501 570.139 657.26 562.819 650.929 555.656C644.592 548.486 635.201 541.522 623.025 534.857C598.674 521.527 563.371 509.49 519.661 499.37C432.259 479.133 311.463 466.607 178.001 466.607C44.5383 466.607 -76.2576 479.133 -163.66 499.37C-207.37 509.49 -242.673 521.527 -267.024 534.857C-279.2 541.522 -288.591 548.486 -294.928 555.656C-301.259 562.819 -304.5 570.139 -304.5 577.555C-304.5 584.971 -301.259 592.291 -294.928 599.454C-288.591 606.624 -279.2 613.588 -267.024 620.253C-242.673 633.584 -207.37 645.62 -163.66 655.74C-76.2576 675.977 44.5383 688.503 178.001 688.503C311.463 688.503 432.259 675.977 519.661 655.74C563.371 645.62 598.674 633.584 623.025 620.253C635.201 613.588 644.592 606.624 650.929 599.454C657.26 592.291 660.501 584.971 660.501 577.555Z" stroke="#2B2C3B" stroke-width="2"/>
</g>
</svg>
