<svg width="2321" height="1160" viewBox="0 0 2321 1160" fill="none" xmlns="http://www.w3.org/2000/svg">
<path d="M2313.38 872.123C2295.93 941.03 2247.11 998.564 2173.68 1043.59C2100.25 1088.62 2002.23 1121.12 1886.48 1139.95C1654.97 1177.62 1352.58 1160.62 1034.22 1080C715.849 999.379 441.821 870.413 256.142 727.096C163.302 655.437 92.5691 580.205 49.4178 505.655C6.26798 431.107 -9.28695 357.272 8.16266 288.365C25.6123 219.457 74.4343 161.924 147.864 116.898C221.296 71.871 319.31 39.3718 435.067 20.5364C666.577 -17.1342 968.959 -0.134642 1287.33 80.4868C1605.7 161.108 1879.72 290.075 2065.4 433.392C2158.24 505.051 2228.97 580.283 2272.13 654.833C2315.28 729.38 2330.83 803.216 2313.38 872.123Z" stroke="url(#paint0_linear_123_4)"/>
<defs>
<linearGradient id="paint0_linear_123_4" x1="88.4452" y1="248.676" x2="2084.61" y2="1076.81" gradientUnits="userSpaceOnUse">
<stop stop-color="#484848"/>
<stop offset="0.491388" stop-color="#484848" stop-opacity="0.36"/>
<stop offset="1" stop-color="#484848"/>
</linearGradient>
</defs>
</svg>
