<svg width="1683" height="841" viewBox="0 0 1683 841" fill="none" xmlns="http://www.w3.org/2000/svg">
<path d="M1677.33 631.947C1664.69 681.86 1629.32 723.545 1576.1 756.176C1522.89 788.808 1451.85 812.365 1367.93 826.019C1200.11 853.326 980.908 841.004 750.107 782.558C519.307 724.111 320.657 630.618 186.059 526.729C118.76 474.783 67.4933 420.254 36.2206 366.226C4.94955 312.2 -6.31431 258.707 6.32525 208.794C18.9648 158.882 54.3311 117.197 107.546 84.566C160.764 51.9339 231.805 28.3766 315.716 14.7228C483.537 -12.5844 702.742 -0.262396 933.543 58.1841C1164.34 116.631 1362.99 210.123 1497.59 314.013C1564.89 365.959 1616.16 420.488 1647.43 474.516C1678.7 528.541 1689.96 582.035 1677.33 631.947Z" stroke="url(#paint0_linear_123_3)"/>
<defs>
<linearGradient id="paint0_linear_123_3" x1="64.3962" y1="179.986" x2="1511.6" y2="780.38" gradientUnits="userSpaceOnUse">
<stop stop-color="#484848"/>
<stop offset="0.491388" stop-color="#484848" stop-opacity="0.36"/>
<stop offset="1" stop-color="#484848"/>
</linearGradient>
</defs>
</svg>
